# xmcd
#
# Track frame offsets: 
#        150
#        13537
#        30150
#        38395
#        48650
#        64450
#        82937
#        99812
#        111770
#        128405
#        139475
#        151500
#
# Disc length: 2200 seconds
#
# Revision: 1
# Processed by: cddbd v1.5.1PL0 Copyright (c) Steve Scherf et al.
# Submitted via: ExactAudioCopy v0.95a5
#
DISCID=8208960c
DTITLE=Various Artist - Legendary Men Of Country - Volume 1
DYEAR=1997
DGENRE=Country
TTITLE0=Kenny Rogers and The First Edition - Ruby, Don't Take Your Love 
TTITLE0=To Town
TTITLE1=Willie Nelson - Stand By Me
TTITLE2=Porter Wagoner - Sorrow On The Rocks
TTITLE3=Boxcar Willie - Big Freight Train Carry Me Home
TTITLE4=George Jones - I Don't Need Your Rockin' Chair
TTITLE5=Don Williams - I Believe In You
TTITLE6=Ray Stevens - Mississippi Squirrel Revival
TTITLE7=Gene Watson - Fourteen Carat Mind
TTITLE8=Waylon Jennings - Rose In Paradise
TTITLE9=Conway Twitty - Hello Darlin'
TTITLE10=Ernest Tubb - I Love You Because
TTITLE11=Marty Robbins - Twentieth Century Drifter
EXTD=
EXTT0=
EXTT1=
EXTT2=
EXTT3=
EXTT4=
EXTT5=
EXTT6=
EXTT7=
EXTT8=
EXTT9=
EXTT10=
EXTT11=
PLAYORDER=
